<?xml version="1.0" encoding="UTF-8"?>
<svg xmlns="http://www.w3.org/2000/svg" xmlns:xlink="http://www.w3.org/1999/xlink" viewBox="0 0 232.56 94.02">
  <defs>
    <style>
      .o {
        fill: url(#m);
      }

      .p {
        fill: url(#h);
        opacity: .62;
      }

      .p, .q, .r, .s, .t, .u, .v, .w, .x, .y, .z {
        isolation: isolate;
      }

      .aa {
        fill: url(#l);
      }

      .q {
        opacity: .17;
      }

      .q, .r, .t, .w {
        fill: #fff;
      }

      .r {
        opacity: .23;
      }

      .ab {
        fill: url(#c);
        fill-opacity: 0;
      }

      .s {
        fill: url(#f);
        opacity: .38;
      }

      .t {
        opacity: .54;
      }

      .u {
        fill: url(#d);
        opacity: .12;
      }

      .v {
        fill: url(#e);
        opacity: .25;
      }

      .w {
        opacity: .35;
      }

      .x {
        fill: url(#i);
        opacity: .75;
      }

      .y {
        fill: url(#j);
        opacity: .88;
      }

      .z {
        fill: url(#g);
        opacity: .5;
      }

      .ac {
        fill: url(#k);
      }
    </style>
    <radialGradient id="c" cx="924.02" cy="-388.66" fx="924.02" fy="-388.66" r="91.02" gradientTransform="translate(-373.21 -155.1) scale(.52 -.52)" gradientUnits="userSpaceOnUse">
      <stop offset=".55" stop-color="#f99c1c"/>
      <stop offset=".69" stop-color="#fddb03"/>
      <stop offset=".83" stop-color="#fee457"/>
      <stop offset=".9" stop-color="#ffe87f"/>
      <stop offset="1" stop-color="#ffe8ad"/>
    </radialGradient>
    <radialGradient id="d" cx="103.91" cy="48.5" fx="103.91" fy="48.5" r="45.38" gradientTransform="translate(0 94.02) scale(1 -1)" xlink:href="#c"/>
    <radialGradient id="e" cx="104.15" cy="48.47" fx="104.15" fy="48.47" r="43.79" gradientTransform="translate(0 94.02) scale(1 -1)" xlink:href="#c"/>
    <radialGradient id="f" cx="104.39" cy="48.43" fx="104.39" fy="48.43" r="42.2" gradientTransform="translate(0 94.02) scale(1 -1)" xlink:href="#c"/>
    <radialGradient id="g" cx="104.63" cy="48.4" fx="104.63" fy="48.4" r="40.62" gradientTransform="translate(0 94.02) scale(1 -1)" xlink:href="#c"/>
    <radialGradient id="h" cx="104.87" cy="48.36" fx="104.87" fy="48.36" r="39.03" gradientTransform="translate(0 94.02) scale(1 -1)" xlink:href="#c"/>
    <radialGradient id="i" cx="105.11" cy="48.33" fx="105.11" fy="48.33" r="37.44" gradientTransform="translate(0 94.02) scale(1 -1)" xlink:href="#c"/>
    <radialGradient id="j" cx="105.35" cy="48.29" fx="105.35" fy="48.29" r="35.86" gradientTransform="translate(0 94.02) scale(1 -1)" xlink:href="#c"/>
    <radialGradient id="k" cx="927.74" cy="-389.21" fx="927.74" fy="-389.21" r="66.41" xlink:href="#c"/>
    <radialGradient id="l" cx="925.05" cy="-389.63" fx="925.05" fy="-389.63" r="43.18" gradientTransform="translate(-373.21 -155.1) scale(.52 -.52)" gradientUnits="userSpaceOnUse">
      <stop offset="0" stop-color="#fff"/>
      <stop offset=".12" stop-color="#fffbe7"/>
      <stop offset=".37" stop-color="#fff0a9"/>
      <stop offset=".53" stop-color="#ffe87f"/>
      <stop offset=".84" stop-color="#fddb03"/>
      <stop offset=".93" stop-color="#fdd803"/>
      <stop offset=".98" stop-color="#fdd001"/>
      <stop offset="1" stop-color="#fdc900"/>
    </radialGradient>
    <radialGradient id="m" cx="925.05" cy="-389.63" fx="925.05" fy="-389.63" r="43.18" gradientTransform="translate(-373.21 -155.1) scale(.52 -.52)" gradientUnits="userSpaceOnUse">
      <stop offset="0" stop-color="#fff"/>
      <stop offset=".12" stop-color="#fffbe7"/>
      <stop offset=".37" stop-color="#fff0a9"/>
      <stop offset=".53" stop-color="#ffe87f"/>
      <stop offset=".81" stop-color="#fddc10"/>
      <stop offset=".84" stop-color="#fddb03"/>
      <stop offset=".92" stop-color="#fdd803"/>
      <stop offset=".96" stop-color="#fdd002"/>
      <stop offset="1" stop-color="#fdc200"/>
    </radialGradient>
  </defs>
  <g id="a" data-name="sun">
    <g id="b" data-name="geometry">
      <g>
        <g>
          <path class="ab" d="m133.44,52c2.5-1.32,6.46-2.86,7.93-3.38l11.24-4.04-11.9-1.54c-2.06-.29-5.73-1.03-7.79-1.98,1.47-1.62,4.41-3.6,6.17-4.63l9.99-5.58-11.46.22c-2.64,0-5.29-.07-7.86-.22.81-2.72,4.19-7.35,4.99-9.03l6.76-10.21-10.5,6.61c-2.57,1.69-7.42,4.19-9.4,4.85.22-1.76,1.62-4.7,2.79-6.46l6.39-9.55-10.14,5.36c-3.45,1.76-7.05,3.53-10.28,5.66-.51-1.62-.37-4.26-.15-5.88l2.06-12.19-7.2,10.06c-.15.22-3.82,5.29-5.8,8.37-2.06-1.62-4.77-4.99-5.73-6.32l-6.9-9.33,1.76,11.46c.22,1.54.73,5.88.44,8.52-3.38-.88-9.33-2.94-9.4-2.94l-11.75-4.11,8.74,8.89c1.62,1.62,3.97,4.55,4.55,6.39-2.2.22-5.58-1.1-7.57-2.06l-7.64-3.67,3.82,7.57c1.62,3.16,3.38,6.24,5.58,8.96-1.91.37-3.89.59-5.88.59l-16.67-.29,15.65,5.88c.07,0,5.07,1.91,7.79,3.6-2.13,3.08-4.11,6.32-6.02,9.55l-5.29,9.11,9.18-5.14c1.32-.73,3.6-1.76,5.51-2.2-1.1,3.67-1.54,8.59-1.54,8.81l-.73,7.93,5.66-5.66c1.69-1.69,4.85-4.19,6.68-4.63.07,0,.15-.07.29-.07,0,.15.07.29.07.37.37,2.06-.51,6.02-1.1,8.08l-3.01,9.84,7.64-6.9c.07,0,3.53-3.16,6.17-5.14,1.1,2.35,2.06,5.8,2.42,7.2l2.79,11.31,2.79-11.31c.37-1.54,1.54-5.73,2.79-8.01,3.08,2.13,8.74,5.58,8.96,5.73l11.31,6.98-7.42-11.02c-1.03-1.54-2.35-4.19-2.5-5.95,2.5.73,6.24,2.86,7.57,3.67l9.92,6.02-6.02-9.92c-.66-1.1-2.28-3.97-3.23-6.32.22,0,.37-.07.59-.15,3.6-.73,9.62-2.64,9.84-2.72l7.79-2.42-7.35-3.01c-1.25-.44-4.63-1.98-6.39-3.6Z"/>
          <path class="u" d="m132.85,51.93c2.2-1.25,5.8-2.64,7.2-3.16.37-.22,11.02-4.11,11.02-4.11,0,0-11.16-1.4-11.61-1.69-1.91-.29-5.22-1.03-7.05-1.91,1.32-1.54,3.97-3.31,5.51-4.26.22-.37,9.7-5.66,9.7-5.66,0,0-10.8.22-11.24.15-2.35,0-4.7-.07-7.05-.22.73-2.5,3.67-6.61,4.41-8.23.07-.44,6.54-10.14,6.54-10.14,0,0-10.06,6.39-10.5,6.46-2.35,1.47-6.68,3.75-8.59,4.26.15-1.62,1.4-4.26,2.42-5.88-.07-.44,6.02-9.48,6.02-9.48-.59.29-9.84,5.22-10.06,5.36-3.16,1.62-6.39,3.31-9.4,5.22-.44-1.47-.44-3.82-.29-5.36-.22-.37,1.69-11.83,1.69-11.83,0,0-6.83,9.55-7.05,9.92-.22.29-3.45,4.77-5.29,7.57-1.84-1.47-4.33-4.55-5.22-5.73-.37-.22-6.9-9.11-6.9-9.11,0,0,1.62,10.87,1.54,11.31.22,1.47.59,5.36.37,7.71-3.08-.73-8.3-2.57-8.45-2.57-.44-.07-11.61-3.97-11.61-3.97,0,0,8.37,8.3,8.45,8.74,1.4,1.54,3.53,4.19,4.04,5.95-2.06.22-5.07-.88-6.98-1.69-.44.07-7.86-3.45-7.86-3.45,0,0,3.67,7.12,3.89,7.49,1.54,2.94,3.23,5.8,5.29,8.37-1.76.37-3.53.51-5.22.51-.44.29-15.87,0-15.87,0,0,0,14.4,5.44,14.76,5.66.15.07,4.63,1.84,7.12,3.38-1.98,2.79-3.75,5.73-5.51,8.67-.22.37-5.36,9.03-5.36,9.03,0,0,8.81-4.92,9.25-4.85,1.18-.59,3.31-1.54,5.07-1.91-.95,3.31-1.4,7.71-1.47,8.01-.15.44-.88,8.15-.88,8.15,0,0,5.51-5.51,5.95-5.58,1.54-1.47,4.41-3.75,6.1-4.11.15,0,.29,0,.37-.07,0,.15.07.29.07.44.37,1.84-.37,5.44-.88,7.27.07.44-2.79,9.84-2.79,9.84,0,0,7.2-6.46,7.57-6.76.15-.07,3.23-2.86,5.66-4.63.95,2.13,1.84,5.22,2.2,6.39.22.37,2.86,11.02,2.86,11.02,0,0,2.64-10.65,2.86-11.02.37-1.4,1.47-5.14,2.64-7.27,2.79,1.91,7.79,4.99,8.08,5.22.37.22,11.09,6.83,11.09,6.83,0,0-6.9-10.28-6.83-10.72-.88-1.4-1.98-3.89-2.06-5.51,2.28.66,5.66,2.5,6.9,3.23.44.07,9.84,5.8,9.84,5.8,0,0-5.66-9.4-5.8-9.84-.59-1.03-1.98-3.6-2.86-5.73.22,0,.37-.07.59-.07,3.23-.66,8.67-2.35,9.03-2.42.44-.07,8.01-2.5,8.01-2.5,0,0-7.27-2.86-7.57-3.16-1.18-.44-4.19-1.84-5.88-3.38Z"/>
          <path class="v" d="m132.34,51.86c1.98-1.1,5.14-2.35,6.46-2.86.73-.44,10.8-4.11,10.8-4.11,0,0-10.5-1.32-11.24-1.84-1.69-.29-4.63-.95-6.32-1.84,1.18-1.4,3.53-3.01,4.92-3.97.51-.73,9.33-5.66,9.33-5.66,0,0-10.21.15-11.09,0-2.06,0-4.11-.07-6.17-.22.59-2.2,3.16-5.88,3.89-7.35.22-.88,6.32-10.06,6.32-10.06,0,0-9.55,6.02-10.43,6.24-2.2,1.32-6.02,3.23-7.71,3.75.07-1.47,1.18-3.82,1.98-5.36-.15-.88,5.58-9.48,5.58-9.48-1.1.59-9.55,5.07-9.92,5.29-2.86,1.47-5.8,3.01-8.52,4.77-.44-1.4-.51-3.45-.37-4.85-.44-.73,1.32-11.39,1.32-11.39,0,0-6.61,9.03-7.05,9.77-.22.37-3.08,4.26-4.7,6.76-1.69-1.32-3.89-3.97-4.77-5.07-.73-.51-6.9-8.81-6.9-8.81,0,0,1.54,10.21,1.4,11.09.15,1.4.44,4.77.22,6.9-2.72-.66-7.35-2.2-7.57-2.28-.88-.22-11.39-3.89-11.39-3.89,0,0,7.71,7.86,7.93,8.67,1.25,1.4,3.01,3.82,3.53,5.44-1.84.22-4.63-.66-6.32-1.4-.88.15-8.15-3.31-8.15-3.31,0,0,3.45,6.68,3.97,7.42,1.47,2.72,3.08,5.44,4.99,7.79-1.54.37-3.08.51-4.63.59-.73.44-14.91.22-14.91.22,0,0,13.07,4.92,13.88,5.44.22.15,4.19,1.69,6.39,3.16-1.76,2.5-3.38,5.22-4.99,7.86-.51.73-5.36,8.96-5.36,8.96,0,0,8.37-4.7,9.25-4.48,1.1-.51,3.01-1.25,4.55-1.62-.88,2.94-1.32,6.83-1.4,7.2-.29.81-1.03,8.3-1.03,8.3,0,0,5.36-5.36,6.24-5.58,1.4-1.32,3.97-3.23,5.51-3.53h.51c.07.15.07.37.15.51.37,1.69-.29,4.85-.73,6.54.15.88-2.5,9.77-2.5,9.77,0,0,6.76-6.1,7.49-6.61.22-.15,2.94-2.57,5.14-4.19.88,1.84,1.69,4.55,1.98,5.66.44.73,2.94,10.8,2.94,10.8,0,0,2.5-10.06,2.94-10.8.37-1.32,1.4-4.63,2.42-6.46,2.5,1.69,6.83,4.41,7.2,4.63.73.51,10.8,6.76,10.8,6.76,0,0-6.46-9.55-6.32-10.43-.73-1.32-1.69-3.53-1.69-4.99,2.06.59,5.07,2.2,6.24,2.86.88.22,9.77,5.51,9.77,5.51,0,0-5.36-8.89-5.51-9.77-.51-.95-1.76-3.16-2.5-5.07.22,0,.37-.07.59-.07,2.94-.59,7.71-2.06,8.15-2.13.88-.22,8.23-2.5,8.23-2.5,0,0-6.98-2.72-7.57-3.38-1.1-.51-3.82-1.91-5.29-3.31Z"/>
          <path class="s" d="m131.82,51.78c1.76-1.03,4.48-2.13,5.66-2.64,1.1-.73,10.58-4.11,10.58-4.11,0,0-9.84-1.25-11.02-1.98-1.54-.29-4.11-.95-5.58-1.76,1.03-1.25,3.01-2.72,4.26-3.6.73-1.1,9.03-5.73,9.03-5.73,0,0-9.62.15-10.94-.07-1.76,0-3.6-.07-5.36-.22.51-1.98,2.64-5.14,3.31-6.54.29-1.32,6.1-10.06,6.1-10.06,0,0-9.03,5.73-10.36,6.02-1.98,1.1-5.29,2.72-6.9,3.16.07-1.32.95-3.45,1.62-4.85-.22-1.32,5.22-9.4,5.22-9.4-1.69.88-9.25,4.92-9.84,5.29-2.57,1.4-5.22,2.79-7.64,4.33-.44-1.25-.51-3.08-.51-4.26-.73-1.1.95-10.94.95-10.94,0,0-6.1,8.45-6.76,9.55-.29.37-2.72,3.82-4.11,5.95-1.47-1.18-3.45-3.45-4.26-4.41-1.1-.73-6.83-8.59-6.83-8.59,0,0,1.47,9.62,1.25,10.94.07,1.25.37,4.26.07,6.17-2.42-.59-6.39-1.91-6.68-1.98-1.32-.29-11.24-3.75-11.24-3.75,0,0,7.2,7.27,7.49,8.59,1.03,1.32,2.57,3.53,2.94,4.92-1.69.22-4.11-.51-5.73-1.03-1.32.22-8.37-3.16-8.37-3.16,0,0,3.23,6.32,3.97,7.35,1.4,2.5,2.94,4.99,4.77,7.2-1.32.37-2.64.51-4.04.59-1.1.73-14.03.44-14.03.44,0,0,11.83,4.48,12.93,5.14.37.22,3.75,1.62,5.73,2.86-1.54,2.28-3.08,4.63-4.48,7.05-.73,1.1-5.36,8.96-5.36,8.96,0,0,8.01-4.48,9.33-4.19,1.03-.44,2.64-1.03,4.04-1.25-.81,2.57-1.18,5.95-1.32,6.39-.44,1.25-1.18,8.52-1.18,8.52,0,0,5.29-5.29,6.54-5.58,1.25-1.1,3.53-2.72,4.85-2.94h.66c.07.22.15.44.15.59.29,1.47-.22,4.19-.51,5.73.22,1.32-2.28,9.7-2.28,9.7,0,0,6.32-5.66,7.42-6.46.29-.22,2.72-2.35,4.63-3.67.81,1.62,1.47,3.89,1.76,4.92.73,1.1,3.08,10.58,3.08,10.58,0,0,2.35-9.48,3.08-10.58.37-1.25,1.32-4.04,2.28-5.73,2.2,1.47,5.95,3.75,6.32,4.04,1.1.73,10.58,6.61,10.58,6.61,0,0-5.95-8.81-5.73-10.14-.59-1.25-1.32-3.23-1.32-4.55,1.84.51,4.48,1.84,5.58,2.42,1.32.29,9.62,5.29,9.62,5.29,0,0-4.99-8.3-5.29-9.62-.44-.88-1.47-2.79-2.13-4.41.22,0,.37-.07.59-.07,2.57-.44,6.76-1.76,7.27-1.84,1.32-.29,8.45-2.5,8.45-2.5,0,0-6.61-2.57-7.57-3.53-1.03-.59-3.38-1.84-4.7-3.16Z"/>
          <path class="z" d="m131.24,51.71c1.54-.88,3.82-1.91,4.92-2.35,1.47-.95,10.36-4.11,10.36-4.11,0,0-9.18-1.18-10.72-2.13-1.4-.37-3.53-.95-4.85-1.69.88-1.1,2.57-2.42,3.67-3.31,1.03-1.47,8.74-5.8,8.74-5.8,0,0-9.03.15-10.8-.15-1.54,0-3.01-.07-4.55-.22.44-1.69,2.2-4.41,2.72-5.66.37-1.76,5.88-9.99,5.88-9.99,0,0-8.52,5.36-10.28,5.73-1.76.95-4.63,2.28-6.02,2.64,0-1.18.66-3.01,1.18-4.26-.29-1.76,4.85-9.4,4.85-9.4-2.28,1.18-8.96,4.7-9.77,5.22-2.28,1.25-4.63,2.5-6.76,3.89-.44-1.1-.59-2.64-.66-3.75-.95-1.47.59-10.5.59-10.5,0,0-5.73,7.93-6.61,9.4-.29.44-2.35,3.31-3.6,5.14-1.32-1.03-3.01-2.94-3.82-3.75-1.47-1.03-6.83-8.37-6.83-8.37,0,0,1.4,9.03,1.03,10.72.07,1.18.22,3.75,0,5.36-2.06-.44-5.36-1.54-5.8-1.62-1.76-.37-11.02-3.6-11.02-3.6,0,0,6.68,6.76,7.05,8.45.88,1.25,2.13,3.16,2.42,4.48-1.47.22-3.6-.29-5.07-.66-1.76.29-8.59-2.94-8.59-2.94,0,0,3.01,5.88,4.04,7.35,1.25,2.28,2.86,4.55,4.48,6.61-1.1.29-2.28.51-3.38.59-1.47.95-13.15.73-13.15.73,0,0,10.65,3.89,12.12,4.85.44.29,3.31,1.54,5.07,2.64-1.4,1.98-2.72,4.11-4.04,6.24-1.03,1.47-5.36,8.89-5.36,8.89,0,0,7.57-4.26,9.33-3.89.95-.29,2.35-.81,3.53-.95-.66,2.2-1.1,5.07-1.25,5.58-.66,1.69-1.25,8.67-1.25,8.67,0,0,5.14-5.14,6.83-5.51,1.18-.88,3.08-2.2,4.26-2.42h.73c.07.22.15.44.22.66.29,1.32-.07,3.6-.37,4.92.29,1.76-2.06,9.62-2.06,9.62,0,0,5.88-5.29,7.35-6.32.37-.22,2.42-2.06,4.11-3.23.66,1.4,1.32,3.31,1.62,4.19.95,1.47,3.16,10.36,3.16,10.36,0,0,2.2-8.81,3.16-10.36.44-1.1,1.25-3.53,2.06-4.92,1.84,1.25,4.99,3.16,5.44,3.45,1.47,1.03,10.36,6.46,10.36,6.46,0,0-5.44-8.08-5.14-9.84-.44-1.18-1.03-2.86-.95-4.11,1.62.44,3.82,1.54,4.92,1.98,1.76.37,9.55,5.07,9.55,5.07,0,0-4.7-7.79-5.07-9.55-.37-.73-1.25-2.42-1.69-3.75.22,0,.44-.07.59-.07,2.28-.37,5.8-1.4,6.46-1.54,1.76-.37,8.67-2.57,8.67-2.57,0,0-6.32-2.5-7.57-3.75-1.18-.51-3.23-1.69-4.41-2.86Z"/>
          <path class="p" d="m130.72,51.71c1.25-.81,3.16-1.62,4.19-2.13,1.91-1.18,10.14-4.19,10.14-4.19,0,0-8.52-1.1-10.36-2.28-1.18-.37-3.01-.95-4.04-1.62.73-1.03,2.13-2.13,3.08-2.94,1.25-1.84,8.45-5.8,8.45-5.8,0,0-8.45.15-10.65-.22-1.25,0-2.5-.15-3.67-.22.37-1.47,1.69-3.67,2.13-4.85.51-2.2,5.66-9.92,5.66-9.92,0,0-8.01,5.07-10.14,5.51-1.54.73-3.97,1.76-5.22,2.06,0-1.03.44-2.57.81-3.75-.37-2.2,4.41-9.33,4.41-9.33-2.86,1.47-8.67,4.55-9.7,5.22-1.98,1.1-4.04,2.2-5.8,3.45-.44-.95-.66-2.28-.81-3.23-1.18-1.91.22-10.06.22-10.06,0,0-5.29,7.35-6.46,9.25-.37.51-1.98,2.79-3.01,4.33-1.18-.81-2.57-2.35-3.38-3.16-1.84-1.25-6.83-8.08-6.83-8.08,0,0,1.25,8.37.88,10.58,0,1.1.07,3.16-.15,4.55-1.69-.37-4.41-1.18-4.92-1.32-2.2-.51-10.87-3.53-10.87-3.53,0,0,6.17,6.24,6.61,8.37.73,1.18,1.69,2.79,1.91,3.97-1.32.22-3.16-.07-4.48-.37-2.2.37-8.81-2.79-8.81-2.79,0,0,2.79,5.44,4.04,7.27,1.18,2.06,2.72,4.19,4.19,6.02-.88.29-1.84.51-2.79.66-1.91,1.18-12.19.95-12.19.95,0,0,9.25,3.45,11.16,4.7.51.29,2.86,1.4,4.33,2.42-1.18,1.69-2.35,3.6-3.53,5.36-1.25,1.84-5.36,8.81-5.36,8.81,0,0,7.2-4.04,9.4-3.6.81-.22,2.06-.51,3.08-.59-.59,1.84-1.03,4.19-1.18,4.77-.81,2.06-1.4,8.89-1.4,8.89,0,0,4.99-4.99,7.2-5.51,1.03-.73,2.64-1.69,3.67-1.84h.88c.07.22.15.51.22.73.22,1.1,0,3.01-.15,4.19.37,2.2-1.84,9.55-1.84,9.55,0,0,5.44-4.85,7.27-6.17.44-.29,2.2-1.76,3.6-2.79.59,1.1,1.1,2.64,1.4,3.45,1.18,1.91,3.23,10.14,3.23,10.14,0,0,2.06-8.23,3.23-10.14.44-1.03,1.18-2.94,1.91-4.19,1.54,1.03,4.04,2.57,4.55,2.94,1.84,1.25,10.06,6.39,10.06,6.39,0,0-4.99-7.35-4.55-9.55-.29-1.1-.66-2.57-.59-3.6,1.4.37,3.23,1.18,4.26,1.62,2.2.51,9.4,4.85,9.4,4.85,0,0-4.41-7.27-4.85-9.4-.29-.66-.95-1.98-1.32-3.16.22,0,.44-.07.59-.07,1.91-.29,4.85-1.1,5.58-1.32,2.2-.44,8.89-2.57,8.89-2.57,0,0-5.95-2.35-7.57-3.89-1.32-.73-3.01-1.84-4.04-2.86Z"/>
          <path class="x" d="m130.14,51.64c1.03-.66,2.5-1.4,3.38-1.84,2.28-1.4,9.92-4.19,9.92-4.19,0,0-7.86-1.03-10.06-2.42-1.03-.37-2.42-.95-3.31-1.47.59-.88,1.69-1.84,2.42-2.64,1.54-2.2,8.08-5.88,8.08-5.88,0,0-7.86.15-10.5-.29-.95-.07-1.91-.15-2.86-.22.22-1.25,1.18-2.94,1.54-3.97.59-2.57,5.44-9.84,5.44-9.84,0,0-7.49,4.7-10.06,5.29-1.4.59-3.23,1.32-4.33,1.54-.07-.88.22-2.13.37-3.16-.44-2.64,4.04-9.33,4.04-9.33-3.38,1.84-8.37,4.41-9.55,5.14-1.69.95-3.45,1.98-4.92,3.01-.44-.81-.66-1.84-.88-2.72-1.4-2.28-.15-9.62-.15-9.62,0,0-4.92,6.83-6.32,9.11-.37.59-1.62,2.28-2.42,3.53-.95-.66-2.13-1.84-2.86-2.5-2.2-1.54-6.83-7.86-6.83-7.86,0,0,1.18,7.79.73,10.36-.07,1.03-.07,2.64-.29,3.82-1.4-.29-3.45-.88-4.04-1.03-2.57-.59-10.65-3.38-10.65-3.38,0,0,5.66,5.66,6.24,8.3.51,1.1,1.25,2.42,1.4,3.45-1.1.22-2.64.15-3.82,0-2.64.44-9.03-2.64-9.03-2.64,0,0,2.57,4.99,4.11,7.2,1.1,1.84,2.57,3.75,3.97,5.44-.73.29-1.47.51-2.2.66-2.28,1.4-11.31,1.25-11.31,1.25,0,0,8.01,3.01,10.21,4.41.59.37,2.42,1.32,3.67,2.2-1.03,1.47-1.98,3.01-3.01,4.55-1.54,2.2-5.44,8.81-5.44,8.81,0,0,6.76-3.75,9.4-3.31.73-.07,1.69-.29,2.57-.29-.51,1.47-.88,3.31-1.1,3.97-.95,2.5-1.54,9.03-1.54,9.03,0,0,4.85-4.85,7.49-5.44.88-.51,2.13-1.18,3.08-1.32h.95c.07.29.15.51.22.88.22.95.07,2.42,0,3.38.44,2.64-1.62,9.55-1.62,9.55,0,0,4.99-4.48,7.12-6.02.51-.37,1.91-1.47,3.08-2.28.44.88.88,1.98,1.18,2.64,1.4,2.28,3.31,9.84,3.31,9.84,0,0,1.91-7.64,3.31-9.84.44-.88,1.1-2.42,1.69-3.38,1.25.81,3.16,1.98,3.67,2.35,2.2,1.54,9.84,6.24,9.84,6.24,0,0-4.48-6.61-4.04-9.25-.15-.95-.37-2.2-.22-3.16,1.18.22,2.64.88,3.6,1.18,2.57.59,9.33,4.63,9.33,4.63,0,0-4.04-6.68-4.63-9.33-.22-.59-.66-1.62-.95-2.5.22,0,.44-.07.59-.07,1.62-.22,3.89-.81,4.7-1.03,2.64-.59,9.11-2.57,9.11-2.57,0,0-5.66-2.2-7.57-4.11-.95-.95-2.35-1.98-3.23-2.86Z"/>
          <path class="y" d="m129.62,51.56c.81-.59,1.84-1.18,2.64-1.62,2.64-1.69,9.7-4.19,9.7-4.19,0,0-7.2-.88-9.77-2.57-.88-.44-1.84-.88-2.57-1.4.44-.73,1.18-1.54,1.84-2.28,1.76-2.57,7.79-5.88,7.79-5.88,0,0-7.27.15-10.28-.44-.66-.07-1.32-.15-1.98-.22.15-.95.66-2.2.95-3.16.66-3.01,5.22-9.77,5.22-9.77,0,0-6.9,4.41-9.99,5.07-1.18.37-2.57.81-3.53.95-.07-.73-.07-1.76,0-2.64-.51-3.08,3.67-9.25,3.67-9.25-3.97,2.13-8.08,4.26-9.48,5.14-1.4.81-2.79,1.69-4.04,2.57-.37-.66-.73-1.47-1.03-2.2-1.69-2.64-.51-9.18-.51-9.18,0,0-4.55,6.32-6.17,8.96-.44.66-1.25,1.84-1.91,2.64-.81-.51-1.69-1.25-2.42-1.84-2.57-1.76-6.83-7.57-6.83-7.57,0,0,1.1,7.12.51,10.21-.07.88-.22,2.13-.37,3.01-1.03-.15-2.42-.51-3.16-.66-3.01-.66-10.5-3.31-10.5-3.31,0,0,5.14,5.14,5.8,8.15.37.95.81,2.06.88,3.01-.95.29-2.13.29-3.23.37-3.23.22-9.48-2.72-9.48-2.72,0,0,2.35,4.63,4.11,7.12,1.03,1.62,2.42,3.38,3.67,4.85-.51.22-1.03.44-1.54.66-2.64,1.69-10.43,1.54-10.43,1.54,0,0,6.68,2.5,9.33,4.19.73.44,1.98,1.18,3.01,1.91-.81,1.18-1.69,2.5-2.5,3.75-1.76,2.57-5.44,8.74-5.44,8.74,0,0,6.39-3.53,9.48-3.01h2.06c-.44,1.1-.81,2.42-1.03,3.23-1.1,2.94-1.69,9.18-1.69,9.18,0,0,4.77-4.77,7.79-5.44.73-.37,1.69-.73,2.5-.73.37,0,.73,0,1.1.07.07.29.22.59.29.95.22.73.22,1.76.22,2.57.51,3.08-1.4,9.48-1.4,9.48,0,0,4.55-4.04,7.05-5.88.59-.44,1.62-1.18,2.57-1.84.37.59.73,1.4,1.03,1.91,1.69,2.64,3.38,9.62,3.38,9.62,0,0,1.76-6.98,3.38-9.62.44-.81.95-1.84,1.54-2.64.95.59,2.2,1.32,2.79,1.76,2.57,1.76,9.55,6.1,9.55,6.1,0,0-3.97-5.88-3.45-8.96,0-.88,0-1.91.15-2.72.95.15,2.06.51,2.94.81,3.01.66,9.18,4.41,9.18,4.41,0,0-3.75-6.17-4.41-9.18-.15-.51-.44-1.18-.59-1.84.22,0,.44,0,.66-.07,1.32-.15,2.94-.51,3.89-.73,3.01-.66,9.4-2.64,9.4-2.64,0,0-5.29-2.06-7.57-4.26-1.03-.81-2.13-1.69-2.79-2.5Z"/>
          <path class="ac" d="m138.73,58.32s-4.99-1.98-7.57-4.48c-.88-.88-1.62-1.69-2.2-2.35.59-.44,1.18-.88,1.91-1.32,3.01-1.91,9.48-4.26,9.48-4.26,0,0-6.46-.81-9.48-2.72-.66-.44-1.32-.88-1.84-1.32.37-.59.73-1.25,1.18-1.98,2.06-2.94,7.49-5.95,7.49-5.95,0,0-6.61.15-10.14-.51-.37-.07-.81-.15-1.18-.22.07-.73.22-1.47.37-2.28.81-3.45,4.92-9.77,4.92-9.77,0,0-6.39,4.04-9.92,4.85-.95.22-1.91.37-2.72.44-.15-.59-.29-1.32-.44-2.13-.59-3.53,3.23-9.25,3.23-9.25-4.55,2.42-7.79,4.11-9.4,5.07-1.1.66-2.2,1.47-3.16,2.13-.37-.51-.81-1.03-1.18-1.69-1.91-3.01-.88-8.81-.88-8.81,0,0-4.19,5.8-6.02,8.81-.44.66-.88,1.32-1.32,1.84-.59-.37-1.25-.73-1.98-1.18-2.94-2.06-6.83-7.35-6.83-7.35,0,0,.95,6.54.37,9.99-.15.81-.29,1.54-.51,2.2-.73-.07-1.47-.22-2.28-.37-3.45-.81-10.28-3.16-10.28-3.16,0,0,4.55,4.63,5.36,8.08.22.88.29,1.76.37,2.5-.81.29-1.62.51-2.57.66-3.53.59-9.55-2.28-9.55-2.28,0,0,2.13,4.19,4.19,7.05.95,1.4,2.28,2.94,3.38,4.26-.29.22-.59.44-.95.66-3.01,1.91-9.55,1.76-9.55,1.76,0,0,5.44,2.06,8.45,3.97.81.51,1.62,1.1,2.28,1.69-.59.88-1.32,1.91-2.06,2.94-2.06,2.94-5.44,8.74-5.44,8.74,0,0,6.02-3.31,9.48-2.72.59.07,1.1.22,1.54.37-.29.73-.66,1.54-.95,2.42-1.25,3.31-1.84,9.4-1.84,9.4,0,0,4.63-4.63,8.08-5.44.66-.15,1.25-.22,1.91-.22.44,0,.81,0,1.25.07.07.29.22.66.29,1.03.15.59.29,1.18.44,1.84.59,3.53-1.18,9.4-1.18,9.4,0,0,4.11-3.67,6.98-5.73.66-.44,1.4-.95,2.06-1.32.29.37.51.73.81,1.18,1.91,3.01,3.45,9.4,3.45,9.4,0,0,1.62-6.39,3.45-9.4.44-.66.88-1.32,1.32-1.84.59.37,1.25.73,1.98,1.18,2.94,2.06,9.33,6.02,9.33,6.02,0,0-3.53-5.14-2.86-8.67.15-.81.29-1.54.51-2.2.66.07,1.47.22,2.28.37,3.45.81,9.11,4.19,9.11,4.19,0,0-3.38-5.66-4.19-9.11-.07-.44-.15-.81-.22-1.18.22,0,.44,0,.66-.07.95-.07,1.98-.22,3.01-.44,3.67-.88,9.77-2.79,9.77-2.79Z"/>
        </g>
        <circle class="aa" cx="104.21" cy="45.98" r="22.33"/>
        <circle class="o" cx="104.21" cy="45.98" r="22.33"/>
        <path class="q" d="m104.21,25.27c-10.28,0-16.67,10.43-16.67,20.71s6.32,15.28,16.67,15.28,15.72-4.99,15.72-15.28-5.44-20.71-15.72-20.71Z"/>
        <path class="r" d="m121.1,34.45c.44,1.76.66,3.67.66,5.58,0,13-10.58,23.58-23.58,23.58-1.91,0-3.82-.22-5.58-.66,3.31,2.28,7.27,3.6,11.53,3.6,11.31,0,20.49-9.18,20.49-20.49.07-4.33-1.25-8.3-3.53-11.61Z"/>
        <path class="t" d="m105.82,65.23c-11.53,0-20.86-9.33-20.86-20.86,0-5.36,1.98-10.21,5.36-13.88-4.26,3.82-6.98,9.4-6.98,15.5,0,11.53,9.33,20.86,20.86,20.86,6.17,0,11.68-2.72,15.5-6.98-3.67,3.38-8.52,5.36-13.88,5.36Z"/>
        <path class="w" d="m104.21,26.22c-9.4,0-17.04,7.05-17.04,14.1s7.64,9.92,17.04,9.92,17.04-2.86,17.04-9.92-7.64-14.1-17.04-14.1Z"/>
      </g>
    </g>
  </g>
  <g id="n" data-name="VectorText">
    <g>
      <path d="m14.08,54.54c0,1.27-.41,2.32-1.24,3.16-.83.84-1.87,1.26-3.12,1.26H2.3V25.9h2.8v13.07c1.11-.14,2.22-.28,3.33-.42,1.4-.18,2.51-.27,3.31-.27,1.56,0,2.34.77,2.34,2.3v13.96Zm-2.8-.42v-13.2l-6.18.17v15.39h3.88c1.53,0,2.3-.79,2.3-2.37Z"/>
      <path d="m21.62,33.91h-2.85v-3.55h2.85v3.55Zm-.04,25.04h-2.76v-20.55h2.76v20.55Z"/>
      <path d="m34.1,28.37h-3.96v10.03h3.5v2.47h-3.5v18.08h-2.76v-18.08h-2.38v-2.47h2.38v-10.11c0-1.59.79-2.39,2.36-2.39h4.36v2.47Z"/>
      <path d="m48.2,58.95h-2.76v-.57c-1.11.16-2.22.3-3.33.44-1.38.17-2.48.25-3.31.25-1.53,0-2.3-.76-2.3-2.28v-7.5c0-1.58.79-2.37,2.38-2.37h6.6v-6.19h-6.03v3.51h-2.72v-3.46c0-1.59.79-2.39,2.36-2.39h6.74c1.57,0,2.36.8,2.36,2.39v18.16Zm-2.72-2.56v-7.26h-6.26v7.39l6.26-.13Z"/>
      <path d="m64.18,56.56c0,1.59-.79,2.39-2.36,2.39h-6.66c-1.57,0-2.36-.79-2.36-2.39v-15.77c0-1.59.79-2.39,2.36-2.39h6.66c1.57,0,2.36.8,2.36,2.39v4.1h-2.76v-4.01h-5.82v15.6h5.82v-4.58h2.76v4.67Z"/>
      <path d="m71.7,33.91h-2.85v-3.55h2.85v3.55Zm-.04,25.04h-2.76v-20.55h2.76v20.55Z"/>
      <path d="m88.02,58.95h-2.76v-.57c-1.11.16-2.22.3-3.33.44-1.38.17-2.48.25-3.31.25-1.53,0-2.3-.76-2.3-2.28v-7.5c0-1.58.79-2.37,2.38-2.37h6.6v-6.19h-6.03v3.51h-2.72v-3.46c0-1.59.79-2.39,2.36-2.39h6.74c1.57,0,2.36.8,2.36,2.39v18.16Zm-2.72-2.56v-7.26h-6.26v7.39l6.26-.13Z"/>
      <path d="m95.54,58.95h-2.76V25.9h2.76v33.05Z"/>
      <path d="m113.58,67.61h-15.58v-2.34h15.58v2.34Z"/>
      <path d="m126.61,45.16h-2.76v-4.24l-5.16.17v17.86h-2.8v-20.55h2.8v.57c.93-.14,1.86-.29,2.8-.44,1.12-.17,2.06-.25,2.8-.25,1.54,0,2.32.77,2.32,2.3v4.58Z"/>
      <path d="m141.76,58.95h-2.76v-.57c-1.11.16-2.22.3-3.33.44-1.38.17-2.48.25-3.31.25-1.53,0-2.3-.76-2.3-2.28v-7.5c0-1.58.79-2.37,2.38-2.37h6.6v-6.19h-6.03v3.51h-2.72v-3.46c0-1.59.79-2.39,2.36-2.39h6.74c1.57,0,2.36.8,2.36,2.39v18.16Zm-2.72-2.56v-7.26h-6.26v7.39l6.26-.13Z"/>
      <path d="m158.01,58.95h-2.78v-.57c-3.01.46-4.67.7-5,.7-1.19,0-2.16-.4-2.89-1.21s-1.1-1.82-1.1-3.03v-12.02c0-1.27.41-2.32,1.24-3.16.83-.84,1.87-1.26,3.12-1.26h4.62v-12.5h2.78v33.05Zm-2.78-2.56v-15.52h-3.88c-1.55,0-2.32.8-2.32,2.39v10.98c0,1.58.77,2.37,2.32,2.37.37,0,1.66-.07,3.88-.21Z"/>
      <path d="m165.6,33.91h-2.84v-3.55h2.84v3.55Zm-.04,25.04h-2.76v-20.55h2.76v20.55Z"/>
      <path d="m181.91,58.95h-2.76v-.57c-1.11.16-2.22.3-3.33.44-1.38.17-2.48.25-3.31.25-1.53,0-2.3-.76-2.3-2.28v-7.5c0-1.58.79-2.37,2.38-2.37h6.6v-6.19h-6.03v3.51h-2.72v-3.46c0-1.59.79-2.39,2.36-2.39h6.74c1.57,0,2.36.8,2.36,2.39v18.16Zm-2.72-2.56v-7.26h-6.26v7.39l6.26-.13Z"/>
      <path d="m198.29,58.95h-2.8v-18.03l-6.17.17v17.86h-2.8v-20.55h2.8v.57c1.1-.14,2.2-.29,3.31-.44,1.35-.17,2.46-.25,3.33-.25,1.56,0,2.34.77,2.34,2.3v18.37Z"/>
      <path d="m214.2,56.56c0,1.59-.79,2.39-2.36,2.39h-6.66c-1.57,0-2.36-.79-2.36-2.39v-15.77c0-1.59.79-2.39,2.36-2.39h6.66c1.57,0,2.36.8,2.36,2.39v4.1h-2.76v-4.01h-5.82v15.6h5.82v-4.58h2.76v4.67Z"/>
      <path d="m230.22,56.56c0,1.59-.79,2.39-2.36,2.39h-6.74c-1.57,0-2.36-.79-2.36-2.39v-15.77c0-1.59.79-2.39,2.36-2.39h6.74c1.57,0,2.36.8,2.36,2.39v7.39l-.95.99h-7.8v7.43h6.03v-3.76h2.72v3.72Zm-2.72-9.63v-6.19h-6.03v6.19h6.03Z"/>
    </g>
  </g>
</svg>